<svg xmlns="http://www.w3.org/2000/svg" width="2207.91" height="198.31" viewBox="0 0 2207.91 198.31">
  <metadata><?xpacket begin="﻿" id="W5M0MpCehiHzreSzNTczkc9d"?>
<x:xmpmeta xmlns:x="adobe:ns:meta/" x:xmptk="Adobe XMP Core 5.6-c138 79.159824, 2016/09/14-01:09:01        ">
   <rdf:RDF xmlns:rdf="http://www.w3.org/1999/02/22-rdf-syntax-ns#">
      <rdf:Description rdf:about=""/>
   </rdf:RDF>
</x:xmpmeta>
                                                                                                    
                                                                                                    
                                                                                                    
                                                                                                    
                                                                                                    
                                                                                                    
                                                                                                    
                                                                                                    
                                                                                                    
                                                                                                    
                                                                                                    
                                                                                                    
                                                                                                    
                                                                                                    
                                                                                                    
                                                                                                    
                                                                                                    
                                                                                                    
                                                                                                    
                                                                                                    
                           
<?xpacket end="w"?></metadata>
<defs>
    <style>
      .cls-1 {
        fill-rule: evenodd;
      }
    </style>
  </defs>
  <path id="jp" class="cls-1" d="M757.093,2248.32h0.833c5.833,0,7.708,2.08,7.708,5.83a18.407,18.407,0,0,1-.625,4.38c-4.583,23.12-12.708,42.91-26.041,60.2-16.666-16.25-36.249-29.37-48.749-36.87a10.232,10.232,0,0,0-5.208-1.67,8.354,8.354,0,0,0-6.666,3.34,8.838,8.838,0,0,0-2.292,5.62,7.166,7.166,0,0,0,3.333,5.83,316.785,316.785,0,0,1,47.707,36.88c-20,20-44.374,34.79-76.039,44.16-4.167,1.25-6.459,4.38-6.459,8.13a11.575,11.575,0,0,0,.625,3.54c1.25,3.54,3.959,5,7.5,5a13.39,13.39,0,0,0,3.958-.42c39.374-10.62,69.582-31.04,91.04-56.66a164.287,164.287,0,0,0,35.207-74.79,38.495,38.495,0,0,0,.834-8.13c0-12.91-7.917-20.41-20.833-20.2l-66.874,1.04c3.125-6.46,6.042-13.13,6.875-17.29a7.11,7.11,0,0,0,.209-2.09c0-3.96-3.125-6.04-6.667-6.66a16.709,16.709,0,0,0-3.125-.21c-3.541,0-5.833,1.25-7.5,5.41-6.874,17.5-14.374,30.42-24.166,42.71a163.308,163.308,0,0,1-32.707,30.63,9.2,9.2,0,0,0-3.958,7.7,8.954,8.954,0,0,0,1.666,5c1.875,2.5,4.167,3.75,6.667,3.75a8.984,8.984,0,0,0,5.416-1.87c18.75-12.71,36.249-31.46,48.541-51.04Zm5.416-40.21a7.68,7.68,0,0,0,2.083,5,137.285,137.285,0,0,1,16.458,22.71c1.25,2.5,2.917,3.54,5.417,3.54,3.958,0,6.875-2.71,6.875-5.83a10.581,10.581,0,0,0-1.459-5.42,129.491,129.491,0,0,0-17.916-23.33,6.8,6.8,0,0,0-5.416-2.29A6.12,6.12,0,0,0,762.509,2208.11Zm27.291-8.33c0,2.5.833,3.54,2.5,5.41a144.355,144.355,0,0,1,15.625,22.09c1.458,2.29,2.916,3.33,5.416,3.33a6.393,6.393,0,0,0,6.458-5.83,11.251,11.251,0,0,0-1.25-5.21c-3.749-6.67-11.874-17.08-17.082-22.71a7.065,7.065,0,0,0-5.625-2.5C792.925,2194.36,789.8,2197.07,789.8,2199.78Zm73.337,62.29a7.516,7.516,0,0,0-5.417,6.87,5.219,5.219,0,0,0,.834,2.92,278.911,278.911,0,0,1,16.666,42.29,7.143,7.143,0,0,0,7.291,5.21,10.289,10.289,0,0,0,3.334-.63c3.541-1.04,5.833-3.33,5.833-6.87a18.6,18.6,0,0,0-.417-3.13c-4.166-13.54-10.833-30.83-17.291-43.12a7.416,7.416,0,0,0-6.875-4.37A8.952,8.952,0,0,0,863.137,2262.07Zm43.957-8.33c-3.125,1.25-5.416,3.75-5.416,6.66a5.9,5.9,0,0,0,.833,3.13,241.574,241.574,0,0,1,15.624,41.25c0.625,3.12,3.75,4.79,7.084,4.79a20.363,20.363,0,0,0,3.541-.42c3.75-1.25,5.625-3.96,5.625-7.08a7.143,7.143,0,0,0-.208-2.09,216.314,216.314,0,0,0-16.25-42.49c-1.667-3.13-4.166-4.59-7.083-4.59A8.117,8.117,0,0,0,907.094,2253.74Zm74.79,3.54h-1.042c-3.541,0-7.5,1.87-7.708,6.46-2.708,25.2-10,50.2-22.5,67.49-13.958,19.38-37.916,33.34-61.249,38.96-3.75.83-5.833,3.54-5.833,6.88a15.981,15.981,0,0,0,.417,3.12,7.412,7.412,0,0,0,7.5,5.63,9.272,9.272,0,0,0,2.292-.21c27.916-5.84,53.749-22.71,70-44.17,14.375-19.16,23.333-47.08,26.041-74.79v-1.46C989.8,2260.61,987.092,2258.11,981.884,2257.28Zm197.5-6.04h0.84c5.83,0,7.91,1.87,7.91,5.83a25.493,25.493,0,0,1-.41,3.75c-12.5,56.46-49.79,93.54-110.62,109.58-4.59,1.04-6.88,4.17-6.88,7.92a15.912,15.912,0,0,0,.42,3.12c1.25,3.96,4.37,6.04,8.54,6.04a10.1,10.1,0,0,0,2.5-.21c71.04-17.08,112.5-64.79,125-123.74a36.932,36.932,0,0,0,.83-7.92c0-13.54-8.33-21.04-21.67-20.83l-65.2,1.25c3.95-6.88,6.87-12.71,8.12-17.09a12.032,12.032,0,0,0,.42-2.7c0-3.34-2.09-6.46-6.46-7.5a13.925,13.925,0,0,0-3.75-.63c-4.17,0-6.67,2.29-8.13,6.04-13.95,34.79-34.79,57.71-55.41,71.04a8.921,8.921,0,0,0-4.38,7.71,8.968,8.968,0,0,0,8.75,9.17,10.927,10.927,0,0,0,5.42-1.67c18.33-12.08,35-29.37,47.08-48.12Zm765.2-5.84c6.25-.21,8.33,1.88,8.33,5.84a18.662,18.662,0,0,1-.62,4.37c-4.38,23.12-12.5,42.92-25.83,60.21-16.67-16.25-36.25-29.38-48.75-36.88a10.971,10.971,0,0,0-5.42-1.66,8.008,8.008,0,0,0-6.46,3.33,8.339,8.339,0,0,0-2.29,5.42,6.791,6.791,0,0,0,3.33,6.04,316.8,316.8,0,0,1,47.71,36.87c-20,20-44.37,34.79-76.04,44.17-4.17,1.25-6.46,4.37-6.46,7.91a11.712,11.712,0,0,0,.63,3.75c1.25,3.55,3.96,5,7.5,5a28.2,28.2,0,0,0,3.96-.41c39.37-10.63,69.58-31.04,91.03-56.67a164.194,164.194,0,0,0,35.21-74.79,38.044,38.044,0,0,0,.84-8.12c0-12.92-7.92-20.42-20.84-20.21l-66.87,1.04c3.12-6.46,6.04-13.12,6.87-17.29a5.754,5.754,0,0,0,.21-1.88c0-3.95-3.12-6.25-6.66-6.87-1.25,0-2.3-.21-3.34-0.21-3.33,0-5.62,1.25-7.29,5.42-6.87,17.5-14.37,30.41-24.16,42.71a163.463,163.463,0,0,1-32.71,30.62,9.2,9.2,0,0,0-3.96,7.71,8.438,8.438,0,0,0,1.67,5c1.87,2.5,4.16,3.75,6.66,3.75a9.006,9.006,0,0,0,5.42-1.88c18.75-12.71,36.25-31.45,48.54-51.04Zm178.54,26.25c21.25-14.79,39.38-30.83,52.29-45.62a9.319,9.319,0,0,0,2.29-5.63,8.62,8.62,0,0,0-3.75-6.87,9.643,9.643,0,0,0-6.04-2.09,9.858,9.858,0,0,0-7.08,3.34c-16.88,19.16-33.75,33.33-56.67,48.12a345.572,345.572,0,0,1-80.2,38.75,8.911,8.911,0,0,0-6.25,8.33,16.678,16.678,0,0,0,.41,3.13c1.67,3.96,4.17,5.83,7.71,5.83a12.738,12.738,0,0,0,4.59-.83c23.54-7.71,49.37-19.58,74.16-34.38v93.96c0,5.63,3.96,8.13,9.38,8.13,5.2,0,9.16-2.71,9.16-7.92V2271.65Zm141.46,27.08c38.33-5.2,77.92-17.29,107.92-34.79a8.5,8.5,0,0,0,4.37-7.5,9.885,9.885,0,0,0-1.46-5.2,9.093,9.093,0,0,0-7.71-4.59,9.885,9.885,0,0,0-5.2,1.46c-27.29,16.25-65.21,28.33-97.71,33.12v-56.45c0-5.63-3.33-7.92-8.96-7.92-5,0-8.96,2.29-8.96,7.92v108.75c0,39.37,8.75,47.08,59.38,47.08q42.18,0,70.62-5c5-1.04,7.71-4.17,7.71-8.96v-1.46c-0.63-5-3.75-7.5-7.92-7.5a10.1,10.1,0,0,0-2.5.21,383.6,383.6,0,0,1-63.95,5.42c-41.04,0-45.63-1.67-45.63-28.54v-36.05ZM2390,2198.11a23.44,23.44,0,1,0,23.54,23.33A23.346,23.346,0,0,0,2390,2198.11Zm0,9.58a14.046,14.046,0,0,1,13.95,13.75,13.955,13.955,0,1,1-27.91,0A14.055,14.055,0,0,1,2390,2207.69Zm71.04,18.75a11.215,11.215,0,0,0-6.25-2.08,8.142,8.142,0,0,0-6.67,3.13,9.5,9.5,0,0,0-2.29,6.04,8.058,8.058,0,0,0,3.34,6.66c15,10.21,32.08,25,43.54,38.13,2.5,2.71,5.2,3.96,7.7,3.96a8.556,8.556,0,0,0,6.46-2.92,10.093,10.093,0,0,0,.42-13.75C2495.21,2250.82,2476.25,2236.03,2461.04,2226.44Zm139.58,15.21a15.892,15.892,0,0,0-3.12-.41c-3.75,0-6.88,2.29-8.34,7.91-7.5,30.83-25.62,61.25-50,80.21-20.83,16.04-56.24,28.12-87.08,29.58-5.21.21-8.33,4.17-8.33,9.17v1.04c0.42,5.21,4.37,8.33,9.79,8.33h0.42c32.29-1.25,70.83-13.54,96.04-32.5,28.95-21.87,48.75-55.62,57.29-91.04a22.762,22.762,0,0,0,.41-3.75C2607.7,2245.82,2605,2242.9,2600.62,2241.65Zm168.75,10.21h0.84c5.83,0,7.91,1.88,7.91,5.83a28.739,28.739,0,0,1-.42,3.75c-12.49,56.46-49.79,93.54-110.62,109.58-4.37,1.05-6.87,4.17-6.87,8.13a17.27,17.27,0,0,0,.41,2.92,8.524,8.524,0,0,0,8.55,6.04,10.1,10.1,0,0,0,2.5-.21c71.04-17.08,112.49-64.79,124.99-123.75a36.2,36.2,0,0,0,.84-7.91c0-13.55-8.34-21.05-21.67-20.84l-65.21,1.25c3.96-6.87,6.88-12.71,8.13-17.08a10.361,10.361,0,0,0,.41-2.5c0-3.54-2.08-6.46-6.45-7.71a13.863,13.863,0,0,0-3.75-.62c-4.17,0-6.67,2.29-8.13,6.04-13.96,34.79-34.79,57.7-55.41,71.04a9.234,9.234,0,0,0-4.38,7.91,9.129,9.129,0,0,0,1.67,5.21,8.7,8.7,0,0,0,7.08,3.75,9.166,9.166,0,0,0,5.42-1.66c18.33-12.09,35-29.38,47.08-48.13Zm7.5-42.29a7.7,7.7,0,0,0,2.08,5,136.663,136.663,0,0,1,16.46,22.71c1.25,2.5,2.92,3.54,5.42,3.54,3.96,0,6.87-2.71,6.87-5.83a10.641,10.641,0,0,0-1.45-5.42,128.825,128.825,0,0,0-17.92-23.33,6.827,6.827,0,0,0-5.42-2.3A6.13,6.13,0,0,0,2776.87,2209.57Zm26.04-9.58c0,2.5.63,3.54,2.5,5.41,5.63,6.04,11.04,14.17,15.63,22.09,1.46,2.29,2.91,3.33,5.41,3.33a6.394,6.394,0,0,0,6.46-5.83,11.157,11.157,0,0,0-1.25-5.21c-3.75-6.67-11.66-17.5-17.08-22.71-1.88-1.67-3.33-2.5-5.63-2.5C2806.04,2194.57,2802.91,2197.28,2802.91,2199.99Z" transform="translate(-625 -2194.38)"/>
</svg>
