<svg xmlns="http://www.w3.org/2000/svg" width="1953.716" height="1802.411" viewBox="0 0 1953.716 1802.411">
  <metadata><?xpacket begin="﻿" id="W5M0MpCehiHzreSzNTczkc9d"?>
<x:xmpmeta xmlns:x="adobe:ns:meta/" x:xmptk="Adobe XMP Core 5.6-c138 79.159824, 2016/09/14-01:09:01        ">
   <rdf:RDF xmlns:rdf="http://www.w3.org/1999/02/22-rdf-syntax-ns#">
      <rdf:Description rdf:about=""/>
   </rdf:RDF>
</x:xmpmeta>
                                                                                                    
                                                                                                    
                                                                                                    
                                                                                                    
                                                                                                    
                                                                                                    
                                                                                                    
                                                                                                    
                                                                                                    
                                                                                                    
                                                                                                    
                                                                                                    
                                                                                                    
                                                                                                    
                                                                                                    
                                                                                                    
                                                                                                    
                                                                                                    
                                                                                                    
                                                                                                    
                           
<?xpacket end="w"?></metadata>
<defs>
    <style>
      .cls-1 {
        fill-rule: evenodd;
      }
    </style>
  </defs>
  <path id="kaomoji" class="cls-1" d="M1695.52,368.966c11.25,0,15-5.25,85.5-108a26.422,26.422,0,0,0,5.25-15.75c0-13.5-12.75-24.75-25.5-24.75-8.25,0-15.75,3.75-21.75,13.5-61.5,105-63.75,108.75-63.75,116.25C1675.27,360.716,1685.02,368.966,1695.52,368.966Zm148.2,0c11.25,0,15-5.25,85.5-108a26.422,26.422,0,0,0,5.25-15.75c0-13.5-12.75-24.75-25.5-24.75-8.25,0-15.75,3.75-21.75,13.5-61.5,105-63.75,108.75-63.75,116.25C1823.47,360.716,1833.22,368.966,1843.72,368.966Zm148.19,0c11.25,0,15-5.25,85.5-108a26.422,26.422,0,0,0,5.25-15.75c0-13.5-12.75-24.75-25.5-24.75-8.25,0-15.75,3.75-21.75,13.5-61.5,105-63.75,108.75-63.75,116.25C1971.66,360.716,1981.41,368.966,1991.91,368.966ZM969.088,671.3c37.5-1.5,69-2.25,103.5-2.25,35.25,0,74.25.75,126,5.25h1.5c11.25,0,17.25-9.75,17.25-19.5,0-8.25-5.25-17.25-16.5-18-33.75-1.5-69.75-2.25-105.75-2.25-45.75,0-90.75.75-127.5,2.25-157.5,6-235.5,84-235.5,207.75s78,201.751,235.5,207.751c36.752,1.5,81.752,2.25,128.252,2.25,36,0,72-.75,105-2.25,11.25-.75,16.5-9.75,16.5-18,0-9.75-6-19.5-17.25-19.5h-1.5c-51.75,3.75-90.75,5.25-126,5.25-34.5,0-66-1.5-103.5-2.25-195.75-5.25-200.25-140.251-200.25-143.251,0-10.5,6-13.5,15-13.5,141,0,281.252.75,418.5,2.25,10.5,0,15-9.75,15-18.75,0-9.75-4.5-18.75-15-18.75-135.75,2.25-278.252,2.25-418.5,2.25-9,0-15-4.5-15-13.5C768.838,806.3,777.088,675.8,969.088,671.3ZM1455.98,1189.55c12.75,0,23.25-11.25,23.25-24,0-6-3-12.75-9-18-81-70.5-121.5-183.751-121.5-296.251,0-111.75,39.75-223.5,120-293.25,6.75-6,9.75-12.75,9.75-19.5a20.166,20.166,0,0,0-20.25-20.25c-6,0-12,2.25-18,7.5-88.5,82.5-132,205.5-132,328.5,0,124.5,45,249,133.5,329.251A19.865,19.865,0,0,0,1455.98,1189.55ZM1684.58,903.8c33,0,59.25-26.25,59.25-60,0-33-26.25-58.5-59.25-58.5s-59.25,25.5-59.25,58.5C1625.33,877.549,1651.58,903.8,1684.58,903.8Zm468.15,279c88.5-80.25,133.5-204.751,133.5-329.251,0-122.25-43.5-245.25-132-327-6-5.25-12.75-8.25-18-8.25-11.25,0-20.25,9.75-20.25,21,0,6,3,12.75,9.75,18.75,79.5,69,119.25,180.75,119.25,293.25,0,113.25-40.5,226.5-120.75,296.251-6,5.25-9,12-9,18,0,12,10.5,23.25,22.5,23.25A20.32,20.32,0,0,0,2152.73,1182.8Zm-837.92,840.08c12.75,0,23.25-11.25,23.25-24,0-6-3-12.75-9-18-81-70.5-121.5-183.75-121.5-296.25,0-111.75,39.75-223.5,120-293.25,6.75-6,9.75-12.75,9.75-19.5a20.166,20.166,0,0,0-20.25-20.25c-6,0-12,2.25-18,7.5-88.5,82.5-132,205.5-132,328.5,0,124.5,45,249,133.5,329.25A19.865,19.865,0,0,0,1314.81,2022.88Zm782.09-182.25c55.5-45.75,83.25-100.5,83.25-151.5,0-81.75-72-158.25-203.25-158.25-46.5,0-106.5,8.25-222,55.5-40.5,16.5-78.75,34.5-111.75,48-12.75,5.25-18,15-18,24,0,12,9,22.5,23.25,22.5a34.138,34.138,0,0,0,15.75-3.75c37.5-17.25,74.25-36,108.75-52.5,42-20.25,129.75-56.25,200.25-56.25,102.75,0,162,54,162,119.25,0,78-87,182.25-302.25,211.5-15,2.25-23.25,13.5-23.25,24.75,0,10.5,8.25,21,24.75,21S2000.15,1920.88,2096.9,1840.63Zm221.41-319.5c73.5-1.5,178.5-5.25,248.25-5.25,58.5,0,72,.75,72,30,0,5.25-.75,36-25.5,97.5-3-6.75-10.5-11.25-24-11.25l-261.75,3.75c-15.75,0-23.25,9.75-23.25,19.5s8.25,20.25,24,20.25c26.25,0,226.5-3,260.25-4.5a29.539,29.539,0,0,0,15-3.75c-51,108.75-152.25,215.25-282,258-14.25,4.5-21,15-21,24,0,9.75,8.25,19.5,23.25,19.5,24.75,0,297.75-99.75,360-410.25a105.492,105.492,0,0,0,2.25-21c0-36-23.25-59.25-72-60.75h-41.25c-76.5,0-180.75,2.25-254.25,3-18.75,0-27.75,10.5-27.75,21,0,9.75,9,20.25,27,20.25h0.75Z" transform="translate(-732.094 -220.469)"/>
</svg>
