<svg xmlns="http://www.w3.org/2000/svg" width="2857.878" height="311.24" viewBox="0 0 2857.878 311.24">
  <metadata><?xpacket begin="﻿" id="W5M0MpCehiHzreSzNTczkc9d"?>
<x:xmpmeta xmlns:x="adobe:ns:meta/" x:xmptk="Adobe XMP Core 5.6-c138 79.159824, 2016/09/14-01:09:01        ">
   <rdf:RDF xmlns:rdf="http://www.w3.org/1999/02/22-rdf-syntax-ns#">
      <rdf:Description rdf:about=""/>
   </rdf:RDF>
</x:xmpmeta>
                                                                                                    
                                                                                                    
                                                                                                    
                                                                                                    
                                                                                                    
                                                                                                    
                                                                                                    
                                                                                                    
                                                                                                    
                                                                                                    
                                                                                                    
                                                                                                    
                                                                                                    
                                                                                                    
                                                                                                    
                                                                                                    
                                                                                                    
                                                                                                    
                                                                                                    
                                                                                                    
                           
<?xpacket end="w"?></metadata>
<defs>
    <style>
      .cls-1 {
        fill-rule: evenodd;
      }
    </style>
  </defs>
  <path id="en" class="cls-1" d="M548.06,2718.38c0-82.5-48.334-146.25-140.419-152.08-6.25-.42-18.333-0.83-30.833-0.83-43.751,0-84.168,0-87.5,50.41-1.25,22.92-2.5,71.25-2.5,117.5,0,35,.833,68.76,2.083,89.17,2.917,44.59,44.167,50,89.168,50C433.475,2872.55,548.06,2865.47,548.06,2718.38Zm-27.5,0c0,127.09-92.084,130.01-150,130.01-45,0-52.5-12.09-54.584-32.09-1.667-17.5-2.084-54.58-2.084-92.5,0-43.75.834-87.92,2.084-104.58,2.083-29.17,27.917-29.59,68.75-29.59,7.5,0,14.167.42,17.084,0.42C477.226,2592.13,520.559,2644.63,520.559,2718.38ZM849.72,2579.63c0-8.33-7.083-12.91-13.75-12.91s-13.334,4.16-13.334,12.91v0.42c0.417,18.75.417,37.5,0.417,56.67,0,37.91-.417,76.25-0.417,113.75,0,65.42-45.833,98.75-90.834,98.75-44.584,0-88.334-32.08-88.334-97.09v-21.25c0-34.16-.417-68.33-0.417-102.5,0-16.25,0-32.5.417-48.33v-0.42c0-8.33-6.667-12.5-13.334-12.5-7.083,0-13.75,4.17-13.75,12.5v0.42c0.833,27.5.833,56.25,0.833,85,0,29.17,0,57.92-.416,85.42v1.66c0,82.09,57.5,122.51,115.418,122.51,62.5,0,118.335-44.59,117.085-125.84-0.417-26.25-.417-49.58-0.417-73.33,0-29.17,0-58.75.833-95.42v-0.42Zm344.58,233.34c0-8.33-7.5-15-15.41-15a14.1,14.1,0,0,0-12.09,6.67c-20.41,27.5-57.5,42.5-95,42.5-81.249,0-121.25-65.84-121.25-127.51,0-59.16,40.417-131.66,122.5-131.66,31.25,0,62.09,11.66,81.67,36.25a14.459,14.459,0,0,0,11.67,6.25,13.609,13.609,0,0,0,13.75-13.75c0-15-41.25-52.5-105-52.5-100.006,0-151.673,79.58-151.673,157.08,0,77.92,52.5,152.5,149.173,152.5C1145.97,2873.8,1194.3,2828.39,1194.3,2812.97Zm84.16,45.42c-0.83-23.75-.83-47.92-0.83-69.17,0-25.84,0-46.67.42-56.67,0-6.25,3.75-7.08,6.66-7.08,3.34,0,6.67-.42,10.42-0.42,12.5,0,18.33,4.58,21.25,7.92,37.5,40.41,90.83,92.92,125.84,131.67,3.75,4.16,8.33,6.25,12.08,6.25,7.92,0,14.58-7.92,14.58-15.84a14.459,14.459,0,0,0-4.16-10.41c-35.42-35-90.42-86.67-130.42-127.51-2.09-2.5-3.34-4.16-3.34-6.25,0-1.66,1.25-3.75,3.75-6.25,111.67-114.16,112.51-118.33,112.51-124.16,0-7.09-7.09-13.34-14.59-13.34a13.783,13.783,0,0,0-10.83,5.42c-17.5,23.33-72.5,83.33-105,117.08-11.25,11.25-18.34,11.67-25.42,11.67-12.08,0-13.33-2.92-13.33-8.33,0-8.75-.42-25.84-0.42-46.67,0-20.42.42-44.17,0.83-66.25v-0.42c0-8.33-7.08-12.91-13.75-12.91-7.08,0-14.16,4.58-14.16,12.91v0.42c0.83,32.5,1.25,77.08,1.25,124.58,0,52.5-.42,108.34-1.25,153.76v0.41c0,7.92,7.08,12.09,13.75,12.09,7.08,0,14.16-4.17,14.16-12.09v-0.41Zm475-.42c-0.42-40-1.67-117.09-1.67-182.09,0-29.58.42-56.66,0.83-76.66,0-5.42,2.92-6.25,6.67-6.25,6.25-.42,21.67-0.84,41.67-0.84,12.91,0,27.91.42,43.33,0.84h0.42c7.91,0,12.08-5.84,12.08-12.09,0-5.83-4.17-12.08-12.5-12.08h-0.42c-24.16.42-59.58,0.83-95.41,0.83-43.76,0-87.92-.41-113.34-0.83h-0.42c-8.75,0-13.33,5.83-13.33,12.08,0,5.84,4.58,12.09,13.75,12.09,20,0,43.33-.84,61.25-0.84,27.92,0,28.75,1.25,28.75,7.09,0.42,19.58.83,50,.83,83.33,0,63.75-.83,138.75-1.66,175.42v0.42c0,8.75,7.08,13.33,14.58,13.33s14.59-4.58,14.59-13.33v-0.42Zm245.41-1.67c0,9.59,7.08,14.59,14.58,14.59,7.08,0,14.17-5,14.17-14.59,0-35-.42-78.75-0.42-104.58,0-8.75,0-9.17,5.42-16.67,27.5-39.17,77.08-114.58,96.25-145.42a13.493,13.493,0,0,0,2.5-7.5c0-8.33-7.92-14.58-15.42-14.58a12.412,12.412,0,0,0-11.25,7.08c-5,9.17-82.5,140.42-91.67,140.42-2.08,0-3.75-1.67-5.83-4.58-30-45-69.17-104.17-87.08-135.84-3.34-5.83-7.92-7.91-12.92-7.91-7.08,0-13.75,5.41-13.75,12.91a16.784,16.784,0,0,0,2.92,9.17l96.66,146.67c4.17,6.66,5.84,7.5,5.84,15.83v105Zm197.07,2.09c0,7.91,7.09,12.5,14.17,12.5s13.75-4.17,13.75-13.75v-11.25c0-31.25-1.25-72.09-1.25-100.42,0-4.59.42-6.25,2.5-6.25a15.313,15.313,0,0,1,3.75.83c12.08,2.92,26.25,4.17,41.25,4.17a219.576,219.576,0,0,0,28.33-1.67c54.17-6.25,81.67-47.5,81.67-88.75,0-41.67-28.75-83.33-87.5-87.5-6.25-.42-13.75-0.83-21.67-0.83-29.58,0-72.08.41-73.33,46.25-0.42,9.16-.42,20.83-0.42,34.58,0,27.5.42,62.92,0.42,100.42,0,37.08-.42,76.25-1.67,111.25v0.42Zm97.92-139.17a256.506,256.506,0,0,1-25.83,1.25c-39.17,0-45.42-5.42-45.42-13.34V2693.8c0-72.5.42-75.42,0.42-77.5,2.08-25.42,20.41-27.08,44.16-27.08,8.34,0,17.09,0,22.5.41,43.75,2.5,64.17,32.92,64.17,63.34C2353.86,2683.8,2333.03,2715.05,2293.86,2719.22Zm179.58,137.92c-0.42-47.09-.84-96.26-0.84-143.76s0.42-93.33.84-133.75v-0.41c0-8.34-7.09-12.92-13.75-12.92-7.09,0-14.17,4.58-14.17,13.75v0.42c0.83,38.75,1.25,82.91,1.25,127.91,0,50.42-.42,102.09-1.25,148.76v0.41c0,8.75,7.08,12.92,13.75,12.92,7.08,0,14.17-4.17,14.17-12.92v-0.41Zm324.58-15c-0.83-43.34-1.67-112.92-1.67-175.01,0-32.5,0-62.91.84-86.66v-0.42c0-9.17-7.09-14.17-14.59-14.17-6.66,0-13.75,4.59-13.75,14.17v0.42c1.25,39.58,2.5,194.16,2.5,238.75,0,12.5,0,20.42-5.41,20.42-2.5,0-5.84-2.5-8.34-6.67-30.83-48.33-116.66-203.75-142.5-247.09-7.92-12.91-20-19.58-31.67-19.58-14.16,0-27.08,10.42-27.08,32.92v1.25c0.83,37.08,1.25,84.58,1.25,133.75,0,42.5-.42,86.25-1.25,124.58v0.42c0,8.33,7.08,12.5,14.17,12.5s14.16-4.17,14.16-12.5v-0.42c-1.25-43.33-2.08-172.92-2.08-226.25,0-29.17,0-35,5.83-35,2.92,0,6.67,3.33,9.59,8.33,22.5,38.75,112.5,202.92,142.08,250.42,7.09,11.25,17.92,16.25,27.92,16.25,15.42,0,30-11.25,30-30v-0.41Zm232.08-97.92c19.17-.84,43.75-1.25,58.75-1.25,11.67,0,26.67,0,26.67,19.58,0,22.92-24.17,84.17-103.34,84.17-75.83,0-120.42-57.5-120.42-125.42,0-67.5,45.42-133.75,124.59-133.75,30.83,0,60.83,11.25,79.17,36.25,3.33,4.58,7.5,6.67,11.66,6.67,7.09,0,13.75-6.25,13.75-14.17,0-17.5-45-52.92-103.75-52.92-100,0-152.08,80-152.08,157.92,0,92.5,67.5,152.92,146.25,152.92,92.08,0,133.33-73.75,133.33-117.5,0-22.92-12.5-37.5-38.75-37.92-16.25-.42-40.41-0.83-61.25-0.83-17.08,0-27.92,0-27.92,12.91,0,6.67,4.59,13.34,12.92,13.34h0.42Z" transform="translate(-286.812 -2563.38)"/>
</svg>
